<?xml version="1.0" standalone="no"?>
<svg xmlns="http://www.w3.org/2000/svg" viewBox="0 0 39.904 46.078" width="39.904" height="46.078"><polygon fill="none" stroke="#f17961" stroke-width="3" points="38.404,12.2695 38.404,33.8085 19.952,44.578 1.5,33.8085 1.5,12.2695 19.952,1.5"></polygon><path fill="#015924" fill-rule="nonzero" d="M4.44 19.37Q3.70 19.37 3.04 18.94Q2.38 18.50 2.38 17.45L2.38 17.45Q2.38 16.80 2.64 15.78Q2.90 14.76 3.48 12.94L3.48 12.94Q4.42 9.96 4.91 7.93Q5.40 5.90 5.40 4.03L5.40 4.03Q5.40 2.90 5.33 2.23Q5.26 1.56 4.94 1.12Q4.63 0.67 3.96 0.67L3.96 0.67Q3.14 0.67 2.58 1.31Q2.02 1.94 1.75 2.88Q1.49 3.82 1.49 4.70L1.49 4.70Q1.49 5.50 1.70 6.00L1.70 6.00Q0.82 6.00 0.41 5.52Q0 5.04 0 4.27L0 4.27Q0 3.29 0.61 2.29Q1.22 1.30 2.24 0.65Q3.26 0 4.39 0L4.39 0Q5.86 0 6.60 1.14Q7.34 2.28 7.34 4.27L7.34 4.27Q7.34 6.02 6.86 7.97Q6.38 9.91 5.50 12.65L5.50 12.65Q4.87 14.54 4.56 15.72Q4.25 16.90 4.25 17.69L4.25 17.69Q4.25 18.14 4.39 18.38Q4.54 18.62 4.92 18.62L4.92 18.62Q6.24 18.62 8.28 16.10Q10.32 13.58 11.84 10.15Q13.37 6.72 13.37 4.22L13.37 4.22Q13.37 3.10 13.02 2.51Q12.67 1.92 12.05 1.73L12.05 1.73Q12.38 1.18 12.74 0.90Q13.10 0.62 13.44 0.62L13.44 0.62Q14.02 0.62 14.46 1.32Q14.90 2.02 14.90 3.29L14.90 3.29Q14.90 5.86 13.10 9.73Q11.30 13.61 8.82 16.49Q6.34 19.37 4.44 19.37L4.44 19.37Z" transform="translate(12.501, 13.355)"></path></svg>