<?xml version="1.0" standalone="no"?>
<svg xmlns="http://www.w3.org/2000/svg" viewBox="0 0 96.165 29" width="96.165" height="29"><g fill="#f17961" color="#f17961" transform="translate(0, 0) scale(0.5272728)"><svg width="27.0" height="55.0" x="0.0" y="0.0" viewBox="0 0 27 55"><path fill="currentColor" fill-rule="nonzero" d="M11.19 21.37l1.47-4.04c.07-.2.29-.3.49-.23.11.04.2.13.23.24l1.43 4.06c.01.04.02.08.02.12v1.52c.21-.45.47-.87.77-1.25.62-.77 1.42-1.37 2.42-1.78-1.14-.36-2.15-1.11-2.91-2.07-.87-1.1-1.4-2.47-1.4-3.86 0-.34.03-.69.1-1.04.2-1.23.83-2.27 1.72-3.01.9-.75 2.08-1.19 3.33-1.19 1.26 0 2.4.49 3.23 1.29.83.8 1.35 1.9 1.35 3.12 0 1.22-.51 2.32-1.35 3.12a4.68 4.68 0 0 1-3.23 1.29.38.38 0 1 1 0-.76c1.06 0 2.01-.41 2.7-1.07a3.55 3.55 0 0 0 0-5.16 3.906 3.906 0 0 0-2.7-1.07c-1.08 0-2.08.37-2.85 1.01-.76.63-1.29 1.51-1.46 2.55v.02c-.06.29-.09.59-.09.9 0 1.21.47 2.42 1.24 3.39.76.97 1.81 1.69 2.98 1.92.27.05.54.08.82.08 1.75 0 3.2-.66 4.22-1.73 1.07-1.13 1.68-2.72 1.68-4.5 0-1.72-.73-3.29-1.91-4.42a6.68 6.68 0 0 0-4.62-1.84c-.49 0-.97.04-1.43.13-.04.01-.08.02-.12.02-.57.11-1.12.29-1.62.53-.94.44-1.73 1.08-2.31 1.87-.12.17-.36.21-.53.08-.04-.03-.06-.06-.09-.09a5.886 5.886 0 0 0-2.31-1.86c-.94-.44-2.02-.68-3.17-.68-1.81 0-3.44.7-4.62 1.84C1.49 9.95.76 11.51.76 13.24c0 1.78.6 3.37 1.68 4.5 1.02 1.07 2.46 1.73 4.22 1.73.28 0 .56-.03.82-.08 1.16-.24 2.21-.96 2.98-1.92.76-.97 1.24-2.18 1.24-3.39 0-.3-.03-.6-.09-.9v-.02c-.17-1.04-.7-1.92-1.46-2.55A4.443 4.443 0 0 0 7.3 9.6c-1.06 0-2.01.41-2.7 1.07a3.55 3.55 0 0 0 0 5.16c.69.66 1.65 1.07 2.7 1.07a.38.38 0 1 1 0 .76c-1.26 0-2.4-.49-3.23-1.29-.83-.8-1.35-1.9-1.35-3.12 0-1.22.51-2.32 1.35-3.12A4.68 4.68 0 0 1 7.3 8.84c1.26 0 2.43.44 3.33 1.19.89.74 1.52 1.78 1.72 3.01.07.35.1.7.1 1.04 0 1.39-.53 2.76-1.4 3.86-.77.98-1.81 1.74-2.98 2.09.96.41 1.73.99 2.33 1.74.3.37.55.78.76 1.23v-1.49c-.01-.04 0-.1.03-.14zm1.82-2.79l-1.1 3.01v4.89c.01.16.01.32.01.48 0 .03 0 .06-.01.08v25.8c.03.31.22.54.48.68.16.08.35.13.53.14.19.01.38-.02.55-.09.28-.12.51-.36.59-.74V21.59l-1.05-3.01zm1.82 8.38V41h8c.21 0 .38.17.38.38v2.39c0 .21-.17.38-.38.38h-2l-1.68 2.71 1.68 2.71h2c.21 0 .38.17.38.38v2.39c0 .21-.17.38-.38.38h-8v.13c0 .04 0 .07-.01.1-.13.67-.54 1.09-1.04 1.3-.28.12-.58.17-.88.15-.3-.01-.59-.09-.85-.23-.48-.25-.84-.7-.89-1.3V26.49c-.07-1.75-.51-3.18-1.35-4.22-.88-1.1-2.21-1.8-4.01-2.04-.03 0-.07-.01-.1-.03-1.55-.2-2.85-.89-3.82-1.91-1.21-1.27-1.89-3.05-1.89-5.02 0-1.94.82-3.69 2.14-4.96a7.402 7.402 0 0 1 5.15-2.05c.36 0 .72.02 1.07.06V6.1c0-1.47.52-2.8 1.35-3.77.85-.98 2.03-1.59 3.33-1.59 1.3 0 2.48.61 3.33 1.59.84.97 1.35 2.3 1.35 3.77v.23c.37-.05.76-.07 1.15-.07 2.01 0 3.83.78 5.15 2.05 1.32 1.27 2.14 3.02 2.14 4.96 0 1.97-.68 3.75-1.89 5.02-1 1.06-2.36 1.76-3.99 1.93-.02.01-.05.02-.08.02-1.79.24-3.12.94-4.01 2.04-.9 1.13-1.35 2.72-1.35 4.68zm0 14.8v1.63h7.62v-1.63h-7.62zm0 2.38v5.42h1.14v-5.42h-1.14zm0 6.18v1.63h7.62v-1.63h-7.62zm1.11-43.55a7.9 7.9 0 0 1 1.01-.3v-.04c.01-.1.01-.2.01-.32 0-1.28-.45-2.44-1.17-3.28-.71-.82-1.69-1.33-2.76-1.33-1.07 0-2.05.51-2.76 1.33-.72.83-1.17 1.99-1.17 3.28 0 .11 0 .22.01.31v.04c.34.08.68.17 1 .28-.04-.2-.07-.42-.07-.63 0-.82.33-1.57.87-2.11.54-.54 1.29-.87 2.11-.87.82 0 1.58.33 2.12.87s.87 1.29.87 2.11c0 .22-.02.44-.07.66zm-2.87 1.96c.53-.61 1.17-1.13 1.91-1.53.01-.02.02-.04.03-.07a2.152 2.152 0 0 0 .25-1.03 2.223 2.223 0 0 0-2.22-2.22 2.223 2.223 0 0 0-2.22 2.22c0 .2.03.4.08.58.04.17.11.32.19.47.75.41 1.43.94 1.98 1.58zm6.87 35.41h-3.21v5.42h3.21l-1.55-2.51a.363.363 0 0 1 0-.4l1.55-2.51z"></path></svg></g><line x1="26.237" y1="1" x2="26.237" y2="28" stroke="#015924" stroke-linecap="round"></line><path fill="#015924" fill-rule="nonzero" d="M4.44 19.37Q3.70 19.37 3.04 18.94Q2.38 18.50 2.38 17.45L2.38 17.45Q2.38 16.80 2.64 15.78Q2.90 14.76 3.48 12.94L3.48 12.94Q4.42 9.96 4.91 7.93Q5.40 5.90 5.40 4.03L5.40 4.03Q5.40 2.90 5.33 2.23Q5.26 1.56 4.94 1.12Q4.63 0.67 3.96 0.67L3.96 0.67Q3.14 0.67 2.58 1.31Q2.02 1.94 1.75 2.88Q1.49 3.82 1.49 4.70L1.49 4.70Q1.49 5.50 1.70 6.00L1.70 6.00Q0.82 6.00 0.41 5.52Q0 5.04 0 4.27L0 4.27Q0 3.29 0.61 2.29Q1.22 1.30 2.24 0.65Q3.26 0 4.39 0L4.39 0Q5.86 0 6.60 1.14Q7.34 2.28 7.34 4.27L7.34 4.27Q7.34 6.02 6.86 7.97Q6.38 9.91 5.50 12.65L5.50 12.65Q4.87 14.54 4.56 15.72Q4.25 16.90 4.25 17.69L4.25 17.69Q4.25 18.14 4.39 18.38Q4.54 18.62 4.92 18.62L4.92 18.62Q6.24 18.62 8.28 16.10Q10.32 13.58 11.84 10.15Q13.37 6.72 13.37 4.22L13.37 4.22Q13.37 3.10 13.02 2.51Q12.67 1.92 12.05 1.73L12.05 1.73Q12.38 1.18 12.74 0.90Q13.10 0.62 13.44 0.62L13.44 0.62Q14.02 0.62 14.46 1.32Q14.90 2.02 14.90 3.29L14.90 3.29Q14.90 5.86 13.10 9.73Q11.30 13.61 8.82 16.49Q6.34 19.37 4.44 19.37L4.44 19.37ZM16.46 18.34Q15.05 18.34 14.29 17.56Q13.54 16.78 13.54 15.55L13.54 15.55Q13.54 14.14 14.47 12.50Q15.41 10.87 16.84 9.76Q18.26 8.64 19.63 8.64L19.63 8.64Q21.12 8.64 21.12 10.10L21.12 10.10Q21.12 11.28 20.23 12.30Q19.34 13.32 17.95 13.97Q16.56 14.62 15.17 14.76L15.17 14.76Q15.07 15.17 15.07 15.62L15.07 15.62Q15.07 16.49 15.50 17.06Q15.94 17.64 16.97 17.64L16.97 17.64Q18.43 17.64 19.92 16.42Q21.41 15.19 22.34 13.39L22.34 13.39L22.63 13.61Q21.67 15.74 19.97 17.04Q18.26 18.34 16.46 18.34L16.46 18.34ZM15.29 14.30Q16.30 13.94 17.40 13.30Q18.50 12.65 19.28 11.77Q20.06 10.90 20.06 9.94L20.06 9.94Q20.06 9.65 19.96 9.52Q19.85 9.38 19.56 9.38L19.56 9.38Q18.82 9.38 17.94 10.13Q17.06 10.87 16.33 12.02Q15.60 13.18 15.29 14.30L15.29 14.30ZM24.38 18.50Q22.82 18.50 22.10 17.57Q21.38 16.63 21.38 15.36L21.38 15.36Q21.38 14.40 21.72 14.00Q22.06 13.61 22.45 13.44Q22.85 13.27 22.92 13.20L22.92 13.20Q24.46 11.52 25.30 9.72L25.30 9.72L25.30 9.43Q25.30 8.62 25.57 8.21Q25.85 7.80 26.23 7.80L26.23 7.80Q26.42 7.80 26.52 7.88Q26.62 7.97 26.62 8.11L26.62 8.11Q26.62 8.21 26.54 8.51Q26.47 8.81 26.47 9.17L26.47 9.17Q26.47 9.65 26.60 10.19Q26.74 10.73 27.02 11.59L27.02 11.59Q27.36 12.62 27.54 13.39Q27.72 14.16 27.72 14.95L27.72 14.95Q27.72 15.58 27.58 16.13L27.58 16.13Q28.44 15.98 29.18 15.35Q29.93 14.71 30.60 13.42L30.60 13.42L30.82 13.66Q30.38 14.90 29.50 15.62Q28.61 16.34 27.46 16.51L27.46 16.51Q27.10 17.50 26.28 18Q25.46 18.50 24.38 18.50L24.38 18.50ZM26.06 16.10Q26.16 15.48 26.16 14.98L26.16 14.98Q26.16 14.26 26.04 13.54Q25.92 12.82 25.68 11.88L25.68 11.88Q25.46 10.92 25.42 10.63L25.42 10.63Q24.19 12.65 23.09 13.75L23.09 13.75Q23.47 14.59 24.25 15.24Q25.03 15.89 26.06 16.10L26.06 16.10ZM24.43 17.66Q25.54 17.66 25.94 16.49L25.94 16.49Q24.98 16.30 24.19 15.73Q23.40 15.17 22.99 14.50L22.99 14.50Q22.46 14.52 22.46 15.34L22.46 15.34Q22.46 16.25 23.00 16.96Q23.54 17.66 24.43 17.66L24.43 17.66ZM32.18 18.38Q30.05 18.38 30.05 16.01L30.05 16.01Q30.05 14.98 30.42 13.45Q30.79 11.93 31.44 10.22L31.44 10.22Q30.86 10.13 30.58 10.03L30.58 10.03L30.58 9.60Q31.44 9.70 31.63 9.70L31.63 9.70Q32.69 6.96 33.90 4.96Q35.11 2.95 35.81 2.95L35.81 2.95Q36 2.95 36.16 3.10Q36.31 3.24 36.31 3.48L36.31 3.48Q36.31 3.79 36.01 4.39Q35.71 4.99 34.99 6.24L34.99 6.24Q34.87 6.48 34.25 7.57Q33.62 8.66 33.12 9.77L33.12 9.77L34.01 9.77Q36 9.77 37.44 9.62L37.44 9.62L37.44 10.06Q34.82 10.34 33.22 10.34L33.22 10.34L32.86 10.34Q31.54 13.37 31.54 15.58L31.54 15.58Q31.54 16.61 31.85 17.05Q32.16 17.50 32.88 17.50L32.88 17.50Q34.10 17.50 35.30 16.40Q36.50 15.31 37.44 13.39L37.44 13.39L37.75 13.63Q36.86 15.72 35.35 17.05Q33.84 18.38 32.18 18.38L32.18 18.38ZM41.59 6.91Q41.16 6.91 40.88 6.71Q40.61 6.50 40.61 6.12L40.61 6.12Q40.61 5.64 41.18 5.26Q41.76 4.87 42.36 4.87L42.36 4.87Q43.15 4.87 43.15 5.62L43.15 5.62Q43.15 6.07 42.66 6.49Q42.17 6.91 41.59 6.91L41.59 6.91ZM38.71 17.90Q37.82 17.90 37.34 17.34Q36.86 16.78 36.86 15.89L36.86 15.89Q36.86 14.95 37.40 13.30Q37.94 11.64 38.75 10.39Q39.55 9.14 40.32 9.14L40.32 9.14Q40.54 9.14 40.69 9.29Q40.85 9.43 40.85 9.67L40.85 9.67Q40.85 10.01 40.08 11.28L40.08 11.28Q39.29 12.60 38.82 13.64Q38.35 14.69 38.35 15.62L38.35 15.62Q38.35 16.46 38.63 16.76Q38.90 17.06 39.53 17.06L39.53 17.06Q41.40 17.06 43.22 13.39L43.22 13.39L43.44 13.63Q42.77 15.65 41.46 16.78Q40.15 17.90 38.71 17.90L38.71 17.90ZM45.36 18.34Q43.94 18.34 43.19 17.56Q42.43 16.78 42.43 15.55L42.43 15.55Q42.43 14.14 43.37 12.50Q44.30 10.87 45.73 9.76Q47.16 8.64 48.53 8.64L48.53 8.64Q50.02 8.64 50.02 10.10L50.02 10.10Q50.02 11.28 49.13 12.30Q48.24 13.32 46.85 13.97Q45.46 14.62 44.06 14.76L44.06 14.76Q43.97 15.17 43.97 15.62L43.97 15.62Q43.97 16.49 44.40 17.06Q44.83 17.64 45.86 17.64L45.86 17.64Q47.33 17.64 48.82 16.42Q50.30 15.19 51.24 13.39L51.24 13.39L51.53 13.61Q50.57 15.74 48.86 17.04Q47.16 18.34 45.36 18.34L45.36 18.34ZM44.18 14.30Q45.19 13.94 46.30 13.30Q47.40 12.65 48.18 11.77Q48.96 10.90 48.96 9.94L48.96 9.94Q48.96 9.65 48.85 9.52Q48.74 9.38 48.46 9.38L48.46 9.38Q47.71 9.38 46.84 10.13Q45.96 10.87 45.23 12.02Q44.50 13.18 44.18 14.30L44.18 14.30ZM54.91 17.90Q54.10 17.90 53.63 17.47Q53.16 17.04 53.16 16.34L53.16 16.34Q53.16 15.53 53.86 13.99L53.86 13.99Q54.17 13.20 54.32 12.73Q54.48 12.26 54.48 11.86L54.48 11.86Q54.48 11.26 54.20 10.91Q53.93 10.56 53.59 10.33Q53.26 10.10 53.14 10.03L53.14 10.03Q52.61 11.38 52.01 12.66Q51.41 13.94 51.00 14.64L51.00 14.64L50.78 14.23Q51.94 12 52.73 9.67L52.73 9.67Q52.49 9.43 52.49 9.10L52.49 9.10Q52.49 8.66 52.67 8.28Q52.85 7.90 53.10 7.68Q53.35 7.46 53.50 7.46L53.50 7.46Q53.83 7.46 53.83 8.04L53.83 8.04Q53.83 8.14 53.71 8.47Q53.59 8.81 53.57 8.93L53.57 8.93Q53.57 9.17 53.77 9.37Q53.98 9.58 54.43 9.89L54.43 9.89Q55.18 10.42 55.60 10.93Q56.02 11.45 56.02 12.26L56.02 12.26Q56.02 12.79 55.85 13.31Q55.68 13.82 55.34 14.66L55.34 14.66Q54.82 15.82 54.82 16.32L54.82 16.32Q54.82 17.04 55.54 17.04L55.54 17.04Q56.26 17.04 57.08 16.46Q57.91 15.89 58.61 15.04Q59.30 14.18 59.62 13.46L59.62 13.46L59.93 13.70Q59.18 15.36 57.77 16.63Q56.35 17.90 54.91 17.90L54.91 17.90Z" transform="translate(36.237, 4.816)"></path></svg>